<?xml version="1.0" standalone="no"?>
<!DOCTYPE svg PUBLIC "-//W3C//DTD SVG 20010904//EN"
 "http://www.w3.org/TR/2001/REC-SVG-20010904/DTD/svg10.dtd">
<svg version="1.0" xmlns="http://www.w3.org/2000/svg"
 width="692.000000pt" height="112.000000pt" viewBox="0 0 692.000000 112.000000"
 preserveAspectRatio="xMidYMid meet">

<g transform="translate(0.000000,112.000000) scale(0.100000,-0.100000)"
fill="#000000" stroke="none">
<path d="M1300 1079 c0 -5 17 -36 39 -67 21 -31 48 -77 60 -101 24 -46 51
-156 51 -208 l0 -33 -690 0 -690 0 0 -40 0 -40 690 0 690 0 0 -107 0 -106 -62
60 c-36 34 -80 65 -102 73 -81 26 -168 -10 -227 -96 -61 -89 -46 -173 46 -268
109 -113 221 -114 318 -3 l27 31 0 -41 c0 -40 2 -43 46 -63 26 -11 48 -20 50
-20 2 0 4 122 4 270 l0 270 250 0 250 0 0 -74 c0 -41 -4 -78 -10 -81 -9 -6
-15 -45 -7 -45 2 0 37 11 77 25 50 17 95 25 140 25 59 0 70 -3 94 -26 34 -34
36 -69 4 -59 -135 41 -250 15 -331 -74 -47 -53 -52 -102 -15 -154 54 -75 211
-94 319 -37 22 11 39 15 39 10 0 -9 71 -50 85 -50 4 0 5 85 3 189 -3 173 -5
192 -24 218 -38 51 -78 65 -179 60 -49 -3 -97 -6 -105 -8 -11 -3 -16 7 -18 39
l-3 42 510 0 511 0 0 40 0 40 -794 0 -794 0 -7 73 c-13 129 -50 233 -113 315
-22 29 -29 32 -78 32 -31 0 -54 -4 -54 -11z m60 -659 c63 -32 75 -72 41 -138
-45 -86 -139 -162 -203 -162 -60 0 -104 69 -96 151 6 57 33 92 107 140 53 34
96 37 151 9z m969 -144 c23 -13 31 -23 29 -38 -4 -29 -88 -84 -156 -104 -64
-19 -156 -15 -178 8 -14 14 -14 19 -1 44 38 73 123 117 212 111 34 -3 76 -12
94 -21z"/>
<path d="M3820 1083 c0 -5 18 -35 41 -68 71 -106 109 -214 109 -312 l0 -33
-237 -2 -238 -3 0 -35 0 -35 238 -3 237 -2 0 -107 0 -107 -57 56 c-76 73 -113
92 -174 86 -63 -6 -117 -43 -158 -106 -45 -70 -49 -108 -18 -174 28 -60 72
-108 136 -150 79 -50 171 -32 239 47 l32 36 0 -39 c0 -37 2 -41 48 -60 l47
-21 3 270 2 269 530 0 530 0 0 -45 0 -45 -40 0 c-99 0 -208 -40 -228 -85 -18
-39 -15 -51 20 -81 31 -25 32 -28 14 -38 -100 -59 -108 -134 -19 -183 117 -65
300 -72 421 -16 32 15 32 16 32 84 l0 69 -40 -43 c-60 -66 -129 -99 -215 -105
-109 -7 -169 29 -150 89 9 29 61 48 150 56 69 5 75 8 75 28 0 22 -5 23 -85 26
-94 4 -123 19 -110 59 15 49 167 78 263 51 32 -10 32 -9 32 25 0 22 -6 37 -15
40 -11 5 -15 21 -15 60 l0 54 145 0 145 0 0 -75 c0 -43 -4 -75 -10 -75 -5 0
-10 -11 -10 -25 0 -14 1 -25 3 -25 1 0 35 11 75 25 136 46 252 27 252 -42 0
-20 -4 -24 -17 -18 -128 53 -312 -8 -358 -119 -16 -38 -7 -86 22 -118 59 -65
196 -81 297 -35 31 14 56 22 56 17 0 -9 71 -50 86 -50 3 0 4 85 2 189 -3 173
-5 192 -24 218 -38 51 -78 65 -179 60 -49 -3 -98 -8 -107 -12 -16 -6 -18 -1
-18 39 l0 46 496 0 495 0 -3 -36 c-3 -34 -6 -37 -73 -63 l-71 -27 -59 28 c-68
32 -153 38 -209 14 -50 -21 -113 -82 -127 -123 -27 -84 -2 -162 75 -230 40
-36 152 -103 171 -103 4 0 -19 28 -52 63 -68 73 -93 119 -93 172 0 94 99 174
196 158 44 -7 49 -15 28 -55 -10 -18 -20 -47 -24 -65 -7 -30 -6 -32 43 -52 27
-12 53 -21 58 -21 5 0 13 17 19 38 15 58 65 121 113 143 58 26 146 25 180 -1
79 -62 13 -186 -135 -255 -29 -14 -64 -25 -78 -25 -23 0 -21 -3 25 -50 27 -28
56 -50 65 -50 32 0 133 94 163 150 26 49 28 63 25 131 -2 63 -7 81 -30 110
-14 19 -44 43 -67 54 -38 17 -41 21 -41 57 l0 38 90 0 90 0 0 40 0 40 -1390 0
-1390 0 0 40 c0 106 -48 255 -109 338 -30 41 -33 42 -86 42 -30 0 -55 -3 -55
-7z m60 -663 c69 -35 79 -89 29 -163 -63 -95 -154 -150 -215 -130 -42 14 -74
66 -74 120 0 54 18 90 66 133 71 62 128 74 194 40z m1890 -138 c63 -24 62 -53
-3 -98 -108 -75 -283 -87 -295 -20 -5 24 83 109 128 123 52 16 119 14 170 -5z"/>
<path d="M60 950 c0 -5 7 -28 16 -51 14 -32 26 -45 60 -59 34 -15 48 -29 69
-69 14 -28 32 -51 40 -51 20 0 19 7 -11 92 -32 90 -37 96 -99 124 -54 26 -75
30 -75 14z"/>
<path d="M1660 956 c0 -2 7 -21 16 -42 20 -49 42 -74 65 -74 21 0 77 -62 85
-95 4 -16 13 -25 25 -25 24 0 24 -1 -14 100 -32 84 -33 85 -87 112 -49 24 -90
35 -90 24z"/>
<path d="M140 305 l0 -215 40 -20 c21 -11 42 -20 45 -20 3 0 5 106 5 235 l0
235 -45 0 -45 0 0 -215z"/>
<path d="M590 504 c-19 -8 -49 -26 -67 -40 l-33 -25 0 30 c0 30 -1 31 -50 31
l-50 0 0 -208 0 -208 45 -22 45 -22 0 97 c0 117 19 191 66 255 56 78 145 109
214 73 36 -19 46 -36 55 -97 11 -72 -14 -142 -76 -211 -28 -32 -50 -59 -48
-61 2 -1 25 -17 51 -34 l46 -32 28 33 c69 81 96 209 65 301 -17 48 -85 124
-128 142 -42 18 -119 17 -163 -2z"/>
<path d="M1740 307 l0 -212 43 -23 c23 -12 45 -22 50 -22 4 0 7 106 7 235 l0
235 -50 0 -50 0 0 -213z"/>
<path d="M2802 510 c-13 -6 -43 -24 -67 -40 l-45 -31 0 31 c0 29 -1 30 -50 30
l-50 0 2 -207 3 -208 43 -23 42 -23 0 73 c0 187 49 301 150 353 48 25 123 16
158 -19 25 -24 27 -33 27 -104 0 -90 -15 -124 -83 -194 -25 -26 -44 -49 -41
-51 2 -3 26 -18 53 -35 l49 -30 21 27 c39 48 59 84 72 135 22 81 18 126 -18
197 -45 87 -106 129 -187 128 -31 0 -66 -4 -79 -9z"/>
<path d="M4458 506 c-20 -8 -48 -22 -62 -31 -25 -17 -26 -17 -26 4 0 19 -6 21
-50 21 l-50 0 0 -205 0 -204 43 -26 c24 -14 46 -25 49 -25 3 0 7 64 9 143 4
133 6 145 32 189 31 54 89 105 132 117 35 9 81 -4 89 -26 10 -25 -25 -71 -67
-88 l-38 -15 38 -45 c21 -24 43 -44 49 -45 18 0 94 80 100 107 9 34 -14 80
-54 111 -41 32 -135 40 -194 18z"/>
</g>
</svg>
